<svg width="580" height="30" xmlns="http://www.w3.org/2000/svg">
 <!-- Created with Method Draw - http://github.com/duopixel/Method-Draw/ -->

 <g>
  <title>background</title>
  <rect fill="none" id="canvas_background" height="32" width="582" y="-1" x="-1"/>
  <g display="none" id="canvasGrid">
   <rect fill="url(#gridpattern)" stroke-width="0" y="0" x="0" height="100%" width="100%" id="svg_1"/>
  </g>
 </g>
 <g>
  <title>Layer 1</title>
  <ellipse stroke="#000" ry="7.5" rx="8.5" id="svg_5" cy="18.453124" cx="83.918868" stroke-opacity="null" fill="#DDDDDD" stroke-width="0"/>
  <ellipse stroke="#000" ry="7.5" rx="8.5" id="svg_7" cy="18.453124" cx="51.081131" stroke-opacity="null" fill="#DDDDDD" stroke-width="0"/>
  <ellipse stroke="#000" ry="7.5" rx="8.5" id="svg_8" cy="18.453124" cx="155.081131" stroke-opacity="null" fill="#DDDDDD" stroke-width="0"/>
  <ellipse stroke="#000" ry="7.5" rx="8.5" id="svg_9" cy="18.453124" cx="117.918853" stroke-opacity="null" fill="#DDDDDD" stroke-width="0"/>
  <ellipse stroke="#000" ry="7.5" rx="8.5" id="svg_10" cy="18.453124" cx="19.081131" stroke-opacity="null" fill="#DDDDDD" stroke-width="0"/>
  <ellipse stroke="#000" ry="7.5" rx="8.5" id="svg_2" cy="18.453124" cx="189.918868" stroke-opacity="null" fill="#DDDDDD" stroke-width="0"/>
  <ellipse stroke="#000" ry="7.5" rx="8.5" id="svg_3" cy="18.453124" cx="261.081131" stroke-opacity="null" fill="#DDDDDD" stroke-width="0"/>
  <ellipse stroke="#000" ry="7.5" rx="8.5" id="svg_4" cy="18.453124" cx="223.918853" stroke-opacity="null" fill="#DDDDDD" stroke-width="0"/>
  <ellipse stroke="#000" ry="7.5" rx="8.5" id="svg_13" cy="18.453124" cx="292.081131" stroke-opacity="null" fill="#DDDDDD" stroke-width="0"/>
  <ellipse stroke="#000" ry="7.5" rx="8.5" id="svg_6" cy="17.453124" cx="327.918868" stroke-opacity="null" fill="#DDDDDD" stroke-width="0"/>
  <ellipse stroke="#000" ry="7.5" rx="8.5" id="svg_11" cy="17.453124" cx="399.081131" stroke-opacity="null" fill="#DDDDDD" stroke-width="0"/>
  <ellipse stroke="#000" ry="7.5" rx="8.5" id="svg_12" cy="17.453124" cx="361.918853" stroke-opacity="null" fill="#DDDDDD" stroke-width="0"/>
  <ellipse stroke="#000" ry="7.5" rx="8.5" id="svg_14" cy="17.453124" cx="433.918868" stroke-opacity="null" fill="#DDDDDD" stroke-width="0"/>
  <ellipse stroke="#000" ry="7.5" rx="8.5" id="svg_15" cy="17.453124" cx="505.081131" stroke-opacity="null" fill="#DDDDDD" stroke-width="0"/>
  <ellipse stroke="#000" ry="7.5" rx="8.5" id="svg_16" cy="17.453124" cx="467.918853" stroke-opacity="null" fill="#DDDDDD" stroke-width="0"/>
  <ellipse stroke="#000" ry="7.5" rx="8.5" id="svg_17" cy="17.453124" cx="536.081131" stroke-opacity="null" fill="#DDDDDD" stroke-width="0"/>
 </g>
</svg>